<svg width="24" height="25" viewBox="0 0 24 25" fill="none" xmlns="http://www.w3.org/2000/svg">
<path d="M11.9989 9.18605C11.3592 9.18435 10.7335 9.37245 10.2008 9.72653C9.66818 10.0806 9.25253 10.5848 9.0065 11.1752C8.76048 11.7656 8.69514 12.4157 8.81876 13.0433C8.94238 13.6708 9.24939 14.2476 9.70095 14.7006C10.1525 15.1536 10.7283 15.4624 11.3555 15.588C11.9826 15.7137 12.6329 15.6504 13.2241 15.4062C13.8153 15.1621 14.3208 14.7481 14.6766 14.2165C15.0323 13.685 15.2224 13.0599 15.2228 12.4202C15.2223 11.5644 14.8828 10.7436 14.2786 10.1374C13.6744 9.53131 12.8547 9.18922 11.9989 9.18605Z" fill="#FAFAFA"/>
<path d="M23.9109 7.48737C23.8946 6.78948 23.8003 6.09559 23.6298 5.41865C23.3309 4.15722 22.6483 3.01949 21.6759 2.16218C20.6566 1.27956 19.3904 0.732025 18.0492 0.593927C17.3665 0.512147 16.68 0.465238 15.9925 0.453385C14.6351 0.422534 13.2845 0.422534 11.9339 0.422534C10.3382 0.422534 8.74256 0.407109 7.14346 0.489377C6.53855 0.51063 5.93625 0.579399 5.34211 0.69505C4.03761 0.937953 2.84023 1.57855 1.91425 2.52896C0.968975 3.54817 0.367138 4.83816 0.193456 6.21735C0.0864186 6.98913 0.0331582 7.76741 0.0340604 8.54658C0.0123505 9.81832 0.00149561 11.0912 0.00149561 12.3652C0.00149561 14.134 -0.0190716 15.9079 0.0923341 17.6767C0.133321 18.4334 0.269215 19.182 0.496823 19.9048C0.947806 21.3562 1.92621 22.5859 3.23912 23.3515C4.22458 23.9139 5.32819 24.2374 6.46131 24.2959C7.23944 24.3542 8.02271 24.3919 8.80426 24.3953C11.3477 24.4108 13.8929 24.445 16.4381 24.3628C17.2402 24.3538 18.0393 24.2654 18.8239 24.0988C20.1248 23.8252 21.3059 23.1475 22.1985 22.1625C23.0912 21.1776 23.6497 19.9356 23.7943 18.6142C23.8996 17.8423 23.9529 17.0641 23.9537 16.285C23.9777 14.9995 23.9811 13.7141 24 11.8665C23.976 10.7764 23.9503 9.13103 23.9109 7.48737ZM11.9853 18.5748C10.7678 18.5738 9.57799 18.2118 8.56621 17.5346C7.55442 16.8575 6.76614 15.8955 6.30101 14.7704C5.83588 13.6452 5.71479 12.4075 5.95306 11.2135C6.19133 10.0196 6.77825 8.92308 7.63962 8.06267C8.50099 7.20226 9.59813 6.61656 10.7923 6.37962C11.9865 6.14268 13.2242 6.26514 14.3488 6.73153C15.4734 7.19791 16.4345 7.98726 17.1106 8.9998C17.7866 10.0123 18.1473 11.2026 18.1469 12.4201C18.1474 13.229 17.9883 14.0301 17.6787 14.7775C17.3691 15.5249 16.9152 16.2039 16.3428 16.7756C15.7705 17.3473 15.091 17.8005 14.3433 18.1092C13.5956 18.4179 12.7943 18.5762 11.9853 18.5748ZM18.9936 7.60563C18.5824 7.60699 18.18 7.48627 17.8375 7.25876C17.4949 7.03126 17.2276 6.70721 17.0694 6.32765C16.9112 5.9481 16.8691 5.53012 16.9487 5.12667C17.0282 4.72322 17.2256 4.35245 17.5161 4.06131C17.8065 3.77018 18.1768 3.57179 18.58 3.49128C18.9833 3.41076 19.4013 3.45174 19.7813 3.60902C20.1612 3.76631 20.4859 4.03282 20.7143 4.3748C20.9427 4.71678 21.0644 5.11884 21.064 5.53006C21.06 6.07776 20.8405 6.60186 20.453 6.989C20.0656 7.37614 19.5413 7.59519 18.9936 7.59878V7.60563Z" fill="#FAFAFA"/>
</svg>
