<svg width="24" height="25" viewBox="0 0 24 25" fill="none" xmlns="http://www.w3.org/2000/svg">
<g clip-path="url(#clip0_88_3376)">
<path d="M16.9181 0.421387H12.6855C12.6855 0.421387 12.6307 16.6591 12.593 17.05C12.4745 17.9136 12.0267 18.698 11.3432 19.2391C10.7139 19.7672 9.92555 20.069 9.10439 20.0962C8.12755 20.0858 7.1924 19.6989 6.49369 19.0161C5.79499 18.3334 5.38658 17.4074 5.35353 16.4311C5.3777 15.5462 5.7139 14.6984 6.30271 14.0374C6.89152 13.3765 7.69504 12.9449 8.57124 12.8191C8.76324 12.8037 9.03581 12.7968 9.2981 12.7917V8.48882C8.66318 8.47907 8.02852 8.52092 7.40039 8.61396C5.78122 8.9548 4.30704 9.78795 3.17982 10.9993C2.0526 12.2106 1.32749 13.7408 1.10381 15.3802C0.911862 16.6447 1.03973 17.9371 1.47573 19.1394C1.91174 20.3417 2.64199 21.4156 3.59981 22.2631C4.85558 23.4513 6.46772 24.1929 8.1871 24.3732C9.90649 24.5536 11.6374 24.1626 13.1124 23.2608C14.291 22.5867 15.2688 21.6106 15.9449 20.4331C16.621 19.2556 16.9712 17.9192 16.9592 16.5614C17.0107 13.738 17.0004 9.06139 17.0124 8.8471C18.7602 10.0624 20.8307 10.729 22.9592 10.762V6.56024C19.4535 5.97053 17.2507 4.14139 16.9181 0.421387Z" fill="#FAFAFA"/>
</g>
<defs>
<clipPath id="clip0_88_3376">
<rect width="24" height="24" fill="white" transform="translate(0 0.421387)"/>
</clipPath>
</defs>
</svg>
